<svg xmlns="http://www.w3.org/2000/svg" width="900" height="900" viewBox="0 0 900 900">
<rect width="100%" height="100%" fill="#fff" />
<text x="450.0" y="22" text-anchor="middle" font-size="16" font-family="Arial" fill="#111">Pointer-Chase: Speedup / IPC / LLC Miss Rate vs Working Set</text>
<text x="70" y="30" font-size="14" font-family="Arial" fill="#222">Speedup (guarded/contract)</text>
<line x1="70" y1="283.3" x2="870" y2="283.3" stroke="#eee" />
<text x="62" y="287.3" font-size="11" font-family="Arial" fill="#444" text-anchor="end">1.09</text>
<line x1="70" y1="222.5" x2="870" y2="222.5" stroke="#eee" />
<text x="62" y="226.5" font-size="11" font-family="Arial" fill="#444" text-anchor="end">1.20</text>
<line x1="70" y1="161.7" x2="870" y2="161.7" stroke="#eee" />
<text x="62" y="165.7" font-size="11" font-family="Arial" fill="#444" text-anchor="end">1.30</text>
<line x1="70" y1="100.8" x2="870" y2="100.8" stroke="#eee" />
<text x="62" y="104.8" font-size="11" font-family="Arial" fill="#444" text-anchor="end">1.40</text>
<line x1="70" y1="40.0" x2="870" y2="40.0" stroke="#eee" />
<text x="62" y="44.0" font-size="11" font-family="Arial" fill="#444" text-anchor="end">1.51</text>
<line x1="70" y1="40" x2="70" y2="283.33333333333337" stroke="#333" />
<line x1="70" y1="283.33333333333337" x2="870" y2="283.33333333333337" stroke="#333" />
<circle cx="70.0" cy="56.8" r="3" fill="#2b6cb0" />
<circle cx="336.7" cy="113.6" r="3" fill="#2b6cb0" />
<circle cx="603.3" cy="164.7" r="3" fill="#2b6cb0" />
<circle cx="870.0" cy="266.6" r="3" fill="#2b6cb0" />
<polyline fill="none" stroke="#2b6cb0" stroke-width="2" points="70.0,56.8 336.7,113.6 603.3,164.7 870.0,266.6" />
<text x="22" y="161.7" font-size="12" font-family="Arial" fill="#222" text-anchor="middle" transform="rotate(-90 22,161.7)">Speedup</text>
<text x="70" y="308.33333333333337" font-size="14" font-family="Arial" fill="#222">IPC</text>
<line x1="70" y1="561.7" x2="870" y2="561.7" stroke="#eee" />
<text x="62" y="565.7" font-size="11" font-family="Arial" fill="#444" text-anchor="end">0.12</text>
<line x1="70" y1="500.8" x2="870" y2="500.8" stroke="#eee" />
<text x="62" y="504.8" font-size="11" font-family="Arial" fill="#444" text-anchor="end">0.95</text>
<line x1="70" y1="440.0" x2="870" y2="440.0" stroke="#eee" />
<text x="62" y="444.0" font-size="11" font-family="Arial" fill="#444" text-anchor="end">1.78</text>
<line x1="70" y1="379.2" x2="870" y2="379.2" stroke="#eee" />
<text x="62" y="383.2" font-size="11" font-family="Arial" fill="#444" text-anchor="end">2.61</text>
<line x1="70" y1="318.3" x2="870" y2="318.3" stroke="#eee" />
<text x="62" y="322.3" font-size="11" font-family="Arial" fill="#444" text-anchor="end">3.44</text>
<line x1="70" y1="318.33333333333337" x2="70" y2="561.6666666666667" stroke="#333" />
<line x1="70" y1="561.6666666666667" x2="870" y2="561.6666666666667" stroke="#333" />
<circle cx="70.0" cy="335.1" r="3" fill="#2f855a" />
<circle cx="336.7" cy="482.6" r="3" fill="#2f855a" />
<circle cx="603.3" cy="543.8" r="3" fill="#2f855a" />
<circle cx="870.0" cy="533.7" r="3" fill="#2f855a" />
<polyline fill="none" stroke="#2f855a" stroke-width="2" points="70.0,335.1 336.7,482.6 603.3,543.8 870.0,533.7" />
<circle cx="70.0" cy="365.1" r="3" fill="#dd6b20" />
<circle cx="336.7" cy="494.3" r="3" fill="#dd6b20" />
<circle cx="603.3" cy="544.9" r="3" fill="#dd6b20" />
<circle cx="870.0" cy="529.9" r="3" fill="#dd6b20" />
<polyline fill="none" stroke="#dd6b20" stroke-width="2" points="70.0,365.1 336.7,494.3 603.3,544.9 870.0,529.9" />
<text x="22" y="440.0" font-size="12" font-family="Arial" fill="#222" text-anchor="middle" transform="rotate(-90 22,440.0)">IPC</text>
<text x="70" y="586.6666666666667" font-size="14" font-family="Arial" fill="#222">LLC Miss Rate</text>
<line x1="70" y1="840.0" x2="870" y2="840.0" stroke="#eee" />
<text x="62" y="844.0" font-size="11" font-family="Arial" fill="#444" text-anchor="end">-0.04</text>
<line x1="70" y1="779.2" x2="870" y2="779.2" stroke="#eee" />
<text x="62" y="783.2" font-size="11" font-family="Arial" fill="#444" text-anchor="end">0.11</text>
<line x1="70" y1="718.3" x2="870" y2="718.3" stroke="#eee" />
<text x="62" y="722.3" font-size="11" font-family="Arial" fill="#444" text-anchor="end">0.26</text>
<line x1="70" y1="657.5" x2="870" y2="657.5" stroke="#eee" />
<text x="62" y="661.5" font-size="11" font-family="Arial" fill="#444" text-anchor="end">0.42</text>
<line x1="70" y1="596.7" x2="870" y2="596.7" stroke="#eee" />
<text x="62" y="600.7" font-size="11" font-family="Arial" fill="#444" text-anchor="end">0.57</text>
<line x1="70" y1="596.6666666666667" x2="70" y2="840.0000000000001" stroke="#333" />
<line x1="70" y1="840.0000000000001" x2="870" y2="840.0000000000001" stroke="#333" />
<circle cx="70.0" cy="673.8" r="3" fill="#2f855a" />
<circle cx="336.7" cy="823.1" r="3" fill="#2f855a" />
<circle cx="603.3" cy="695.3" r="3" fill="#2f855a" />
<circle cx="870.0" cy="613.4" r="3" fill="#2f855a" />
<polyline fill="none" stroke="#2f855a" stroke-width="2" points="70.0,673.8 336.7,823.1 603.3,695.3 870.0,613.4" />
<circle cx="70.0" cy="698.3" r="3" fill="#dd6b20" />
<circle cx="336.7" cy="823.2" r="3" fill="#dd6b20" />
<circle cx="603.3" cy="699.0" r="3" fill="#dd6b20" />
<circle cx="870.0" cy="622.0" r="3" fill="#dd6b20" />
<polyline fill="none" stroke="#dd6b20" stroke-width="2" points="70.0,698.3 336.7,823.2 603.3,699.0 870.0,622.0" />
<text x="22" y="718.3" font-size="12" font-family="Arial" fill="#222" text-anchor="middle" transform="rotate(-90 22,718.3)">LLC Miss Rate</text>
<text x="70.0" y="870.0000000000001" font-size="12" font-family="Arial" fill="#222" text-anchor="middle">L1</text>
<text x="336.7" y="870.0000000000001" font-size="12" font-family="Arial" fill="#222" text-anchor="middle">L2</text>
<text x="603.3" y="870.0000000000001" font-size="12" font-family="Arial" fill="#222" text-anchor="middle">L3</text>
<text x="870.0" y="870.0000000000001" font-size="12" font-family="Arial" fill="#222" text-anchor="middle">DRAM</text>
<rect x="660" y="50" width="190" height="58" fill="#fff" stroke="#ddd" />
<circle cx="670" cy="66" r="4" fill="#2f855a" />
<text x="682" y="70" font-size="11" font-family="Arial" fill="#222">guarded</text>
<circle cx="670" cy="84" r="4" fill="#dd6b20" />
<text x="682" y="88" font-size="11" font-family="Arial" fill="#222">contract</text>
</svg>